<?xml version="1.0" encoding="UTF-8"?>
<svg xmlns="http://www.w3.org/2000/svg" xmlns:xlink="http://www.w3.org/1999/xlink" width="16pt" height="15pt" viewBox="0 0 16 15" version="1.1">
<g id="surface1">
<path style=" stroke:none;fill-rule:nonzero;fill:rgb(100%,100%,100%);fill-opacity:1;" d="M 15.898438 1.953125 C 15.8125 1.847656 15.679688 1.785156 15.539062 1.785156 L 3.253906 1.785156 L 2.910156 0.347656 C 2.863281 0.144531 2.675781 0 2.460938 0 L 0.460938 0 C 0.207031 0 0 0.199219 0 0.445312 C 0 0.691406 0.207031 0.894531 0.460938 0.894531 L 2.09375 0.894531 L 4.425781 10.671875 C 4.472656 10.875 4.660156 11.015625 4.875 11.015625 L 14.125 11.015625 C 14.378906 11.015625 14.585938 10.816406 14.585938 10.570312 C 14.585938 10.324219 14.378906 10.125 14.125 10.125 L 5.242188 10.125 L 4.886719 8.636719 L 14.152344 8.636719 C 14.371094 8.636719 14.558594 8.492188 14.605469 8.285156 L 15.988281 2.332031 C 16.019531 2.199219 15.988281 2.058594 15.898438 1.953125 Z M 13.785156 7.742188 L 4.675781 7.742188 L 3.46875 2.679688 L 14.960938 2.679688 Z M 13.785156 7.742188 "/>
<path style=" stroke:none;fill-rule:nonzero;fill:rgb(100%,100%,100%);fill-opacity:1;" d="M 6.769531 11.613281 C 5.835938 11.613281 5.078125 12.347656 5.078125 13.25 C 5.078125 14.152344 5.835938 14.886719 6.769531 14.886719 C 7.703125 14.886719 8.460938 14.152344 8.460938 13.25 C 8.460938 12.347656 7.703125 11.613281 6.769531 11.613281 Z M 6.769531 13.996094 C 6.34375 13.996094 6 13.660156 6 13.25 C 6 12.839844 6.34375 12.507812 6.769531 12.507812 C 7.191406 12.507812 7.539062 12.839844 7.539062 13.25 C 7.539062 13.660156 7.191406 13.996094 6.769531 13.996094 Z M 6.769531 13.996094 "/>
<path style=" stroke:none;fill-rule:nonzero;fill:rgb(100%,100%,100%);fill-opacity:1;" d="M 12.308594 11.613281 C 11.375 11.613281 10.617188 12.347656 10.617188 13.25 C 10.617188 14.152344 11.375 14.886719 12.308594 14.886719 C 13.242188 14.886719 14 14.152344 14 13.25 C 14 12.347656 13.242188 11.613281 12.308594 11.613281 Z M 12.308594 13.996094 C 11.882812 13.996094 11.539062 13.660156 11.539062 13.25 C 11.539062 12.839844 11.882812 12.507812 12.308594 12.507812 C 12.730469 12.507812 13.078125 12.839844 13.078125 13.25 C 13.078125 13.660156 12.730469 13.996094 12.308594 13.996094 Z M 12.308594 13.996094 "/>
</g>
</svg>
